<svg xmlns="http://www.w3.org/2000/svg" xmlns:xlink="http://www.w3.org/1999/xlink" width="1160" zoomAndPan="magnify" viewBox="0 0 870 299.999988" height="400" preserveAspectRatio="xMidYMid meet" version="1.2"><defs><clipPath id="f40cdd0eac"><path d="M 41.386719 57.136719 L 252 57.136719 L 252 242.863281 L 41.386719 242.863281 Z M 41.386719 57.136719 "/></clipPath></defs><g id="d9ddc383d8"><g clip-rule="nonzero" clip-path="url(#f40cdd0eac)"><path style=" stroke:none;fill-rule:evenodd;fill:#b6d28b;fill-opacity:1;" d="M 199.894531 215.183594 C 208.285156 215.183594 215.085938 221.378906 215.085938 229.019531 C 215.085938 236.664062 208.285156 242.855469 199.894531 242.855469 C 191.503906 242.855469 184.707031 236.664062 184.707031 229.019531 C 184.707031 221.378906 191.503906 215.183594 199.894531 215.183594 Z M 225.609375 204.535156 C 208.445312 204.988281 178.574219 202.027344 161.796875 199.917969 C 156.566406 199.394531 150.808594 198.464844 145.722656 197.105469 C 144.472656 196.761719 143.257812 196.402344 142.03125 195.988281 C 137.273438 194.410156 133.875 192.820312 130.050781 189.542969 C 126.382812 186.160156 124.316406 182.910156 122.042969 178.503906 C 119.050781 172.152344 116.972656 165.761719 114.9375 159.058594 C 108.425781 134.886719 102.636719 110.890625 95.71875 86.742188 C 92.886719 77.605469 89.386719 70.738281 82.144531 64.359375 C 78.976562 61.742188 76.230469 60.101562 72.347656 58.738281 C 68.636719 57.535156 65.648438 57.136719 61.753906 57.46875 C 57.960938 57.910156 55.171875 58.835938 51.90625 60.824219 C 48.71875 62.925781 46.683594 65.03125 44.675781 68.273438 C 42.773438 71.6875 41.886719 74.574219 41.554688 78.453125 C 41.511719 79.839844 41.5625 81.035156 41.773438 82.402344 C 42.15625 84.410156 43.1875 88.878906 45.53125 89.546875 C 48.398438 88.78125 49.960938 83.042969 51.40625 80.570312 C 52.488281 78.589844 53.542969 77.125 55.285156 75.667969 C 56.523438 74.632812 57.589844 74.019531 59.152344 73.582031 C 60.453125 73.25 61.480469 73.207031 62.808594 73.390625 C 64.207031 73.644531 65.246094 74.046875 66.488281 74.722656 C 68.007812 75.644531 69.097656 76.582031 70.3125 77.878906 C 73.9375 82.257812 75.65625 86.675781 77.132812 92.132812 C 78.378906 96.890625 79.640625 101.640625 80.921875 106.390625 C 86.308594 125.945312 91.816406 145.503906 98.628906 164.613281 C 101.433594 172.335938 104.203125 179.140625 108.382812 186.253906 C 112.121094 192.398438 115.523438 196.613281 121.304688 200.972656 C 127.101562 205.039062 132.007812 206.929688 138.863281 208.550781 C 146.425781 210.109375 153.453125 210.546875 161.144531 210.808594 C 169.46875 210.878906 177.773438 210.667969 186.097656 210.46875 C 189.359375 210.371094 247.953125 210.203125 225.609375 204.535156 Z M 132.335938 141.660156 C 136.304688 142.011719 142.367188 142.59375 147.730469 143.113281 C 148.394531 152.753906 149.582031 163.066406 151.570312 169.496094 C 146.453125 169.089844 141.746094 168.476562 137.757812 167.554688 C 138.554688 167.8125 139.148438 168.113281 139.769531 168.675781 C 139.90625 168.753906 140.160156 169.113281 140.28125 169.25 C 140.433594 169.480469 140.140625 168.96875 140.113281 168.921875 C 139.550781 167.71875 139.105469 166.390625 138.6875 165.132812 C 137.09375 160.273438 135.789062 155.320312 134.527344 150.371094 C 133.78125 147.503906 133.0625 144.589844 132.335938 141.660156 Z M 157.042969 144.015625 C 158.109375 144.121094 158.832031 144.1875 159.09375 144.210938 C 161.808594 144.429688 166.40625 144.722656 172.089844 145.003906 C 172.207031 154.449219 172.804688 164.238281 174.417969 170.203125 C 169.425781 170.207031 164.398438 170.144531 159.570312 169.957031 C 160.078125 164.828125 159.140625 158.027344 158.867188 156.027344 C 158.28125 152.015625 157.667969 148.019531 157.042969 144.015625 Z M 181.457031 145.410156 C 186.003906 145.582031 190.886719 145.726562 195.84375 145.816406 C 195.632812 154.875 195.867188 164.148438 197.164062 169.953125 C 192.515625 170.003906 187.425781 170.097656 182.175781 170.15625 C 183.054688 165 182.535156 158.058594 182.390625 156.027344 C 182.097656 152.484375 181.78125 148.949219 181.457031 145.410156 Z M 205.242188 145.917969 C 208.894531 145.929688 212.503906 145.894531 215.960938 145.8125 C 214.945312 154.976562 214.371094 164.355469 215.203125 170.152344 C 211.683594 170.074219 208.207031 169.972656 205.019531 169.9375 C 206.050781 164.808594 205.808594 158.023438 205.738281 156.027344 C 205.585938 152.65625 205.417969 149.285156 205.242188 145.917969 Z M 225.363281 145.4375 C 229.132812 145.210938 232.523438 144.890625 235.351562 144.457031 C 233.734375 155.050781 232.445312 164.75 231.929688 170.0625 L 231.84375 170.835938 C 231.894531 170.566406 232.128906 170.234375 232.3125 170.027344 C 232.460938 169.875 232.8125 169.65625 232.636719 169.710938 C 232.101562 169.859375 231.550781 169.929688 231.003906 169.996094 C 228.492188 170.171875 225.757812 170.234375 222.941406 170.246094 C 224.496094 165.082031 224.855469 158.066406 224.964844 156.027344 C 225.117188 152.496094 225.246094 148.964844 225.363281 145.4375 Z M 236.53125 136.914062 C 233.257812 136.378906 229.359375 136.105469 225.667969 135.980469 C 225.957031 126.683594 226.226562 117.378906 226.664062 108.015625 C 226.683594 107.566406 226.777344 106.300781 226.789062 104.890625 C 231.660156 105.117188 236.492188 105.832031 241.355469 105.832031 C 242.808594 105.832031 242.003906 108.296875 240.984375 112.085938 C 239.125 119.039062 237.953125 128.046875 236.53125 136.914062 Z M 217.222656 135.886719 C 215.59375 135.90625 214.292969 135.933594 213.488281 135.949219 C 210.558594 136.035156 207.632812 136.125 204.703125 136.222656 C 204.175781 126.84375 203.632812 117.460938 203.25 108.015625 C 203.21875 107.421875 203.195312 105.429688 202.96875 103.542969 C 208.714844 103.832031 214.457031 104.140625 220.207031 104.480469 C 221.308594 104.546875 222.417969 104.628906 223.527344 104.707031 C 222.238281 110.371094 219.992188 119.734375 219.796875 120.625 C 219.210938 123.382812 218.191406 129.117188 217.222656 135.886719 Z M 196.207031 136.507812 C 191.027344 136.691406 185.851562 136.882812 180.675781 137.074219 C 179.757812 127.410156 178.816406 117.746094 178.046875 108.015625 C 177.988281 107.304688 177.851562 104.566406 177.394531 102.429688 C 178.644531 102.480469 179.679688 102.519531 180.449219 102.542969 C 186.972656 102.804688 193.492188 103.089844 200.003906 103.402344 C 199.265625 108.789062 197.605469 119.664062 197.480469 120.625 C 197.128906 123.464844 196.582031 129.472656 196.207031 136.507812 Z M 172.097656 137.390625 C 166.765625 137.582031 161.429688 137.769531 156.089844 137.949219 C 154.511719 127.996094 152.90625 118.039062 151.476562 108.015625 C 151.355469 107.183594 150.949219 103.609375 150.152344 101.4375 C 159.730469 101.734375 168.738281 102.089844 174.726562 102.324219 C 174.277344 107.164062 172.863281 119.597656 172.769531 120.625 C 172.511719 123.582031 172.1875 129.96875 172.097656 137.390625 Z M 147.429688 138.222656 C 144.863281 138.300781 142.292969 138.375 139.722656 138.441406 C 138.679688 138.472656 134.835938 138.503906 131.640625 138.828125 C 129.734375 131.074219 127.792969 123.238281 125.496094 115.828125 C 125.003906 114.3125 123.320312 108.664062 121.855469 107.867188 C 117.691406 108.574219 124.351562 149.210938 124.917969 152.632812 C 125.777344 157.855469 127.136719 163.253906 128.414062 168.394531 C 128.847656 170.148438 129.523438 171.828125 130.136719 173.515625 C 130.414062 174.277344 130.878906 174.929688 131.265625 175.621094 C 131.515625 176.074219 131.972656 176.453125 132.296875 176.828125 C 133.03125 177.496094 133.675781 177.867188 134.628906 178.171875 C 145.726562 181.546875 160.433594 181.691406 172.019531 181.8125 C 182.796875 181.871094 193.566406 181.523438 204.339844 181.402344 C 212.929688 181.390625 223.972656 181.839844 232.363281 180.878906 C 233.773438 180.6875 234.957031 180.457031 236.308594 179.984375 C 237.851562 179.40625 238.921875 178.777344 240.101562 177.609375 C 241.246094 176.371094 241.847656 175.269531 242.300781 173.652344 C 242.605469 172.4375 242.691406 171.453125 242.707031 170.203125 C 243.140625 160.3125 251.808594 105.78125 251.554688 104.703125 C 251.917969 103.839844 252.027344 103.113281 251.945312 102.179688 C 251.285156 96.992188 245.582031 97.511719 241.761719 97.410156 C 236.796875 97.28125 231.757812 97.078125 226.796875 97.0625 C 211.382812 97.015625 195.972656 96.707031 180.546875 96.734375 C 170.34375 96.75 160.160156 96.707031 149.957031 96.800781 C 148.847656 96.808594 90.691406 98.53125 106.238281 101.726562 C 111.695312 100.609375 130.367188 100.859375 147.816406 101.371094 C 147.753906 105.226562 147.027344 119.515625 147 120.625 C 146.929688 123.695312 147.015625 130.453125 147.429688 138.222656 Z M 144.539062 215.183594 C 152.929688 215.183594 159.730469 221.378906 159.730469 229.019531 C 159.730469 236.664062 152.929688 242.855469 144.539062 242.855469 C 136.152344 242.855469 129.347656 236.664062 129.347656 229.019531 C 129.347656 221.378906 136.152344 215.183594 144.539062 215.183594 Z M 144.019531 220.726562 C 148.039062 220.726562 151.300781 223.691406 151.300781 227.355469 C 151.300781 231.019531 148.039062 233.988281 144.019531 233.988281 C 139.996094 233.988281 136.738281 231.019531 136.738281 227.355469 C 136.738281 223.691406 139.996094 220.726562 144.019531 220.726562 Z M 199.375 220.726562 C 203.394531 220.726562 206.65625 223.691406 206.65625 227.355469 C 206.65625 231.019531 203.394531 233.988281 199.375 233.988281 C 195.351562 233.988281 192.09375 231.019531 192.09375 227.355469 C 192.09375 223.691406 195.351562 220.726562 199.375 220.726562 "/></g><g style="fill:#40513b;fill-opacity:1;"><g transform="translate(271.210982, 181.955354)"><path style="stroke:none" d=""/></g></g><g style="fill:#000000;fill-opacity:1;"><g transform="translate(290.674711, 181.955354)"><path style="stroke:none" d="M 66.140625 -64.390625 L 43.296875 0 L 23.671875 0 L 0.828125 -64.390625 L 17.515625 -64.390625 L 33.484375 -15.78125 L 49.53125 -64.390625 Z M 66.140625 -64.390625 "/></g></g><g style="fill:#000000;fill-opacity:1;"><g transform="translate(357.635056, 181.955354)"><path style="stroke:none" d="M 53.9375 -26.421875 C 53.9375 -24.953125 53.847656 -23.421875 53.671875 -21.828125 L 18.15625 -21.828125 C 18.40625 -18.648438 19.429688 -16.21875 21.234375 -14.53125 C 23.035156 -12.851562 25.253906 -12.015625 27.890625 -12.015625 C 31.804688 -12.015625 34.523438 -13.664062 36.046875 -16.96875 L 52.75 -16.96875 C 51.894531 -13.601562 50.347656 -10.578125 48.109375 -7.890625 C 45.878906 -5.203125 43.082031 -3.09375 39.71875 -1.5625 C 36.351562 -0.03125 32.59375 0.734375 28.4375 0.734375 C 23.425781 0.734375 18.960938 -0.332031 15.046875 -2.46875 C 11.128906 -4.613281 8.066406 -7.671875 5.859375 -11.640625 C 3.660156 -15.617188 2.5625 -20.269531 2.5625 -25.59375 C 2.5625 -30.914062 3.644531 -35.5625 5.8125 -39.53125 C 7.988281 -43.507812 11.035156 -46.566406 14.953125 -48.703125 C 18.867188 -50.847656 23.363281 -51.921875 28.4375 -51.921875 C 33.394531 -51.921875 37.796875 -50.878906 41.640625 -48.796875 C 45.492188 -46.722656 48.503906 -43.757812 50.671875 -39.90625 C 52.847656 -36.050781 53.9375 -31.554688 53.9375 -26.421875 Z M 37.890625 -30.546875 C 37.890625 -33.234375 36.96875 -35.375 35.125 -36.96875 C 33.289062 -38.5625 31 -39.359375 28.25 -39.359375 C 25.625 -39.359375 23.40625 -38.59375 21.59375 -37.0625 C 19.789062 -35.53125 18.675781 -33.359375 18.25 -30.546875 Z M 37.890625 -30.546875 "/></g></g><g style="fill:#000000;fill-opacity:1;"><g transform="translate(414.138572, 181.955354)"><path style="stroke:none" d="M 25.140625 -51.921875 C 28.742188 -51.921875 31.90625 -51.1875 34.625 -49.71875 C 37.351562 -48.25 39.445312 -46.320312 40.90625 -43.9375 L 40.90625 -51.1875 L 56.59375 -51.1875 L 56.59375 -0.09375 C 56.59375 4.613281 55.660156 8.878906 53.796875 12.703125 C 51.929688 16.523438 49.085938 19.566406 45.265625 21.828125 C 41.441406 24.097656 36.6875 25.234375 31 25.234375 C 23.414062 25.234375 17.269531 23.441406 12.5625 19.859375 C 7.851562 16.285156 5.164062 11.441406 4.5 5.328125 L 20 5.328125 C 20.488281 7.273438 21.648438 8.816406 23.484375 9.953125 C 25.316406 11.085938 27.578125 11.65625 30.265625 11.65625 C 33.515625 11.65625 36.097656 10.71875 38.015625 8.84375 C 39.941406 6.976562 40.90625 4 40.90625 -0.09375 L 40.90625 -7.34375 C 39.382812 -4.957031 37.273438 -3.015625 34.578125 -1.515625 C 31.890625 -0.015625 28.742188 0.734375 25.140625 0.734375 C 20.921875 0.734375 17.097656 -0.347656 13.671875 -2.515625 C 10.242188 -4.691406 7.535156 -7.78125 5.546875 -11.78125 C 3.554688 -15.789062 2.5625 -20.425781 2.5625 -25.6875 C 2.5625 -30.945312 3.554688 -35.5625 5.546875 -39.53125 C 7.535156 -43.507812 10.242188 -46.566406 13.671875 -48.703125 C 17.097656 -50.847656 20.921875 -51.921875 25.140625 -51.921875 Z M 40.90625 -25.59375 C 40.90625 -29.507812 39.820312 -32.597656 37.65625 -34.859375 C 35.488281 -37.117188 32.84375 -38.25 29.71875 -38.25 C 26.601562 -38.25 23.957031 -37.132812 21.78125 -34.90625 C 19.613281 -32.675781 18.53125 -29.601562 18.53125 -25.6875 C 18.53125 -21.769531 19.613281 -18.664062 21.78125 -16.375 C 23.957031 -14.082031 26.601562 -12.9375 29.71875 -12.9375 C 32.84375 -12.9375 35.488281 -14.066406 37.65625 -16.328125 C 39.820312 -18.585938 40.90625 -21.675781 40.90625 -25.59375 Z M 40.90625 -25.59375 "/></g></g><g style="fill:#000000;fill-opacity:1;"><g transform="translate(476.420861, 181.955354)"><path style="stroke:none" d="M 25.140625 -51.921875 C 28.742188 -51.921875 31.90625 -51.1875 34.625 -49.71875 C 37.351562 -48.25 39.445312 -46.320312 40.90625 -43.9375 L 40.90625 -51.1875 L 56.59375 -51.1875 L 56.59375 -0.09375 C 56.59375 4.613281 55.660156 8.878906 53.796875 12.703125 C 51.929688 16.523438 49.085938 19.566406 45.265625 21.828125 C 41.441406 24.097656 36.6875 25.234375 31 25.234375 C 23.414062 25.234375 17.269531 23.441406 12.5625 19.859375 C 7.851562 16.285156 5.164062 11.441406 4.5 5.328125 L 20 5.328125 C 20.488281 7.273438 21.648438 8.816406 23.484375 9.953125 C 25.316406 11.085938 27.578125 11.65625 30.265625 11.65625 C 33.515625 11.65625 36.097656 10.71875 38.015625 8.84375 C 39.941406 6.976562 40.90625 4 40.90625 -0.09375 L 40.90625 -7.34375 C 39.382812 -4.957031 37.273438 -3.015625 34.578125 -1.515625 C 31.890625 -0.015625 28.742188 0.734375 25.140625 0.734375 C 20.921875 0.734375 17.097656 -0.347656 13.671875 -2.515625 C 10.242188 -4.691406 7.535156 -7.78125 5.546875 -11.78125 C 3.554688 -15.789062 2.5625 -20.425781 2.5625 -25.6875 C 2.5625 -30.945312 3.554688 -35.5625 5.546875 -39.53125 C 7.535156 -43.507812 10.242188 -46.566406 13.671875 -48.703125 C 17.097656 -50.847656 20.921875 -51.921875 25.140625 -51.921875 Z M 40.90625 -25.59375 C 40.90625 -29.507812 39.820312 -32.597656 37.65625 -34.859375 C 35.488281 -37.117188 32.84375 -38.25 29.71875 -38.25 C 26.601562 -38.25 23.957031 -37.132812 21.78125 -34.90625 C 19.613281 -32.675781 18.53125 -29.601562 18.53125 -25.6875 C 18.53125 -21.769531 19.613281 -18.664062 21.78125 -16.375 C 23.957031 -14.082031 26.601562 -12.9375 29.71875 -12.9375 C 32.84375 -12.9375 35.488281 -14.066406 37.65625 -16.328125 C 39.820312 -18.585938 40.90625 -21.675781 40.90625 -25.59375 Z M 40.90625 -25.59375 "/></g></g><g style="fill:#000000;fill-opacity:1;"><g transform="translate(538.70315, 181.955354)"><path style="stroke:none" d="M 13.578125 -56.515625 C 10.828125 -56.515625 8.578125 -57.320312 6.828125 -58.9375 C 5.085938 -60.5625 4.21875 -62.566406 4.21875 -64.953125 C 4.21875 -67.398438 5.085938 -69.429688 6.828125 -71.046875 C 8.578125 -72.671875 10.828125 -73.484375 13.578125 -73.484375 C 16.265625 -73.484375 18.476562 -72.671875 20.21875 -71.046875 C 21.96875 -69.429688 22.84375 -67.398438 22.84375 -64.953125 C 22.84375 -62.566406 21.96875 -60.5625 20.21875 -58.9375 C 18.476562 -57.320312 16.265625 -56.515625 13.578125 -56.515625 Z M 21.375 -51.1875 L 21.375 0 L 5.6875 0 L 5.6875 -51.1875 Z M 21.375 -51.1875 "/></g></g><g style="fill:#000000;fill-opacity:1;"><g transform="translate(565.762468, 181.955354)"><path style="stroke:none" d="M 53.9375 -26.421875 C 53.9375 -24.953125 53.847656 -23.421875 53.671875 -21.828125 L 18.15625 -21.828125 C 18.40625 -18.648438 19.429688 -16.21875 21.234375 -14.53125 C 23.035156 -12.851562 25.253906 -12.015625 27.890625 -12.015625 C 31.804688 -12.015625 34.523438 -13.664062 36.046875 -16.96875 L 52.75 -16.96875 C 51.894531 -13.601562 50.347656 -10.578125 48.109375 -7.890625 C 45.878906 -5.203125 43.082031 -3.09375 39.71875 -1.5625 C 36.351562 -0.03125 32.59375 0.734375 28.4375 0.734375 C 23.425781 0.734375 18.960938 -0.332031 15.046875 -2.46875 C 11.128906 -4.613281 8.066406 -7.671875 5.859375 -11.640625 C 3.660156 -15.617188 2.5625 -20.269531 2.5625 -25.59375 C 2.5625 -30.914062 3.644531 -35.5625 5.8125 -39.53125 C 7.988281 -43.507812 11.035156 -46.566406 14.953125 -48.703125 C 18.867188 -50.847656 23.363281 -51.921875 28.4375 -51.921875 C 33.394531 -51.921875 37.796875 -50.878906 41.640625 -48.796875 C 45.492188 -46.722656 48.503906 -43.757812 50.671875 -39.90625 C 52.847656 -36.050781 53.9375 -31.554688 53.9375 -26.421875 Z M 37.890625 -30.546875 C 37.890625 -33.234375 36.96875 -35.375 35.125 -36.96875 C 33.289062 -38.5625 31 -39.359375 28.25 -39.359375 C 25.625 -39.359375 23.40625 -38.59375 21.59375 -37.0625 C 19.789062 -35.53125 18.675781 -33.359375 18.25 -30.546875 Z M 37.890625 -30.546875 "/></g></g><g style="fill:#000000;fill-opacity:1;"><g transform="translate(622.265985, 181.955354)"><path style="stroke:none" d="M 26.515625 0.734375 C 22.046875 0.734375 18.066406 -0.03125 14.578125 -1.5625 C 11.097656 -3.09375 8.347656 -5.1875 6.328125 -7.84375 C 4.304688 -10.5 3.175781 -13.476562 2.9375 -16.78125 L 18.4375 -16.78125 C 18.625 -15.007812 19.445312 -13.570312 20.90625 -12.46875 C 22.375 -11.375 24.179688 -10.828125 26.328125 -10.828125 C 28.285156 -10.828125 29.796875 -11.207031 30.859375 -11.96875 C 31.929688 -12.738281 32.46875 -13.734375 32.46875 -14.953125 C 32.46875 -16.421875 31.703125 -17.503906 30.171875 -18.203125 C 28.648438 -18.910156 26.175781 -19.691406 22.75 -20.546875 C 19.082031 -21.398438 16.023438 -22.300781 13.578125 -23.25 C 11.128906 -24.195312 9.019531 -25.695312 7.25 -27.75 C 5.476562 -29.800781 4.59375 -32.566406 4.59375 -36.046875 C 4.59375 -38.984375 5.398438 -41.660156 7.015625 -44.078125 C 8.640625 -46.492188 11.023438 -48.40625 14.171875 -49.8125 C 17.316406 -51.21875 21.0625 -51.921875 25.40625 -51.921875 C 31.832031 -51.921875 36.894531 -50.328125 40.59375 -47.140625 C 44.289062 -43.960938 46.414062 -39.742188 46.96875 -34.484375 L 32.46875 -34.484375 C 32.226562 -36.265625 31.445312 -37.671875 30.125 -38.703125 C 28.8125 -39.742188 27.085938 -40.265625 24.953125 -40.265625 C 23.117188 -40.265625 21.710938 -39.910156 20.734375 -39.203125 C 19.753906 -38.503906 19.265625 -37.546875 19.265625 -36.328125 C 19.265625 -34.859375 20.039062 -33.753906 21.59375 -33.015625 C 23.15625 -32.285156 25.585938 -31.554688 28.890625 -30.828125 C 32.679688 -29.847656 35.769531 -28.882812 38.15625 -27.9375 C 40.539062 -26.988281 42.632812 -25.457031 44.4375 -23.34375 C 46.25 -21.238281 47.1875 -18.410156 47.25 -14.859375 C 47.25 -11.859375 46.40625 -9.179688 44.71875 -6.828125 C 43.039062 -4.472656 40.625 -2.625 37.46875 -1.28125 C 34.320312 0.0625 30.671875 0.734375 26.515625 0.734375 Z M 26.515625 0.734375 "/></g></g><g style="fill:#000000;fill-opacity:1;"><g transform="translate(673.449374, 181.955354)"><path style="stroke:none" d="M 34.21875 -13.296875 L 34.21875 0 L 26.234375 0 C 20.546875 0 16.113281 -1.390625 12.9375 -4.171875 C 9.757812 -6.953125 8.171875 -11.492188 8.171875 -17.796875 L 8.171875 -38.15625 L 1.921875 -38.15625 L 1.921875 -51.1875 L 8.171875 -51.1875 L 8.171875 -63.65625 L 23.84375 -63.65625 L 23.84375 -51.1875 L 34.125 -51.1875 L 34.125 -38.15625 L 23.84375 -38.15625 L 23.84375 -17.609375 C 23.84375 -16.078125 24.207031 -14.972656 24.9375 -14.296875 C 25.675781 -13.628906 26.90625 -13.296875 28.625 -13.296875 Z M 34.21875 -13.296875 "/></g></g><g style="fill:#000000;fill-opacity:1;"><g transform="translate(710.690336, 181.955354)"><path style="stroke:none" d="M 21.375 -42.65625 C 23.207031 -45.46875 25.5 -47.679688 28.25 -49.296875 C 31 -50.921875 34.054688 -51.734375 37.421875 -51.734375 L 37.421875 -35.140625 L 33.109375 -35.140625 C 29.203125 -35.140625 26.269531 -34.296875 24.3125 -32.609375 C 22.351562 -30.929688 21.375 -27.984375 21.375 -23.765625 L 21.375 0 L 5.6875 0 L 5.6875 -51.1875 L 21.375 -51.1875 Z M 21.375 -42.65625 "/></g></g><g style="fill:#000000;fill-opacity:1;"><g transform="translate(749.949256, 181.955354)"><path style="stroke:none" d="M 57.96875 -51.1875 L 25.875 24.3125 L 8.984375 24.3125 L 20.734375 -1.75 L -0.09375 -51.1875 L 17.421875 -51.1875 L 29.265625 -19.171875 L 41 -51.1875 Z M 57.96875 -51.1875 "/></g></g></g></svg>